<svg width="40" height="40" viewBox="0 0 40 40" fill="none" xmlns="http://www.w3.org/2000/svg">
<path d="M37.0202 11.6187C37.2292 11.5403 37.4363 11.4566 37.6411 11.3675C38.0089 11.2076 38.4382 11.3103 38.6937 11.6194C38.9492 11.9286 38.9694 12.3695 38.7431 12.7006C37.8382 14.0248 36.721 15.1952 35.4362 16.1676C35.4393 16.314 35.4409 16.4602 35.4409 16.6048C35.4409 26.0185 28.1055 36.8997 14.6965 36.9C14.6964 36.9 14.6962 36.9 14.6961 36.9V36C11.595 36.0016 8.54705 35.291 5.79371 33.9376L37.0202 11.6187ZM37.0202 11.6187C37.398 11.0507 37.7012 10.432 37.9181 9.77629C38.0355 9.42149 37.9214 9.03105 37.6314 8.79529C37.3415 8.55952 36.936 8.52749 36.6126 8.7148C35.4639 9.38015 34.2182 9.87019 32.9188 10.1684C31.7818 9.13224 30.3561 8.44679 28.8201 8.201C27.1148 7.92814 25.3643 8.2116 23.8382 9.00937C22.3118 9.8073 21.0927 11.0767 20.3734 12.625C19.8248 13.8059 19.5911 15.0973 19.685 16.3795C17.4213 16.1382 15.2182 15.4995 13.1827 14.4916C10.8178 13.3206 8.7327 11.6777 7.06171 9.67061C6.87466 9.44594 6.59013 9.32611 6.29871 9.34928C6.00728 9.37245 5.74527 9.53573 5.59607 9.78714C4.58709 11.4873 4.27722 13.5019 4.73227 15.42C4.91937 16.2087 5.22974 16.9557 5.64615 17.6375C5.40192 17.5581 5.13225 17.5862 4.90719 17.7204C4.63482 17.8827 4.46797 18.1764 4.46797 18.4935V18.5776C4.46797 18.5777 4.46797 18.5778 4.46797 18.5779C4.46698 20.3659 5.09967 22.0963 6.2542 23.4753C6.59726 23.8851 6.98004 24.2563 7.39532 24.5848C7.30047 24.6352 7.21402 24.7029 7.141 24.7862C6.93099 25.0257 6.86323 25.3583 6.96281 25.6609C7.46831 27.1968 8.45061 28.5365 9.76875 29.4953C10.4256 29.9731 11.1497 30.3447 11.9137 30.6012C10.0066 31.6072 7.86141 32.1413 5.66819 32.1379L37.0202 11.6187Z" stroke="#2C2E43" stroke-width="1.8" stroke-linejoin="round"/>
</svg>
